/* XPM */
static char * colle_xpm[] = {
"26 32 143 2",
"  	c None",
". 	c #6F6F79",
"+ 	c #696974",
"@ 	c #3A354F",
"# 	c #3E3A52",
"$ 	c #707A83",
"% 	c #C4DEED",
"& 	c #C9E5F4",
"* 	c #B0BECC",
"= 	c #6F758F",
"- 	c #55577A",
"; 	c #56587B",
"> 	c #56577A",
", 	c #383348",
"' 	c #ACB9C7",
") 	c #CAE6F5",
"! 	c #C8E3F1",
"~ 	c #81869B",
"{ 	c #535577",
"] 	c #6B6B74",
"^ 	c #95A7BB",
"/ 	c #CBE7F6",
"( 	c #8797AC",
"_ 	c #C2DDEC",
": 	c #B3C5D4",
"< 	c #3C384F",
"[ 	c #A5B6C3",
"} 	c #99ACBF",
"| 	c #545579",
"1 	c #8897AD",
"2 	c #6C7590",
"3 	c #626887",
"4 	c #BFD9E8",
"5 	c #CBE8F7",
"6 	c #787A92",
"7 	c #4C4D6B",
"8 	c #000000",
"9 	c #CCE8F7",
"0 	c #96A8BC",
"a 	c #79859E",
"b 	c #A2B7C9",
"c 	c #77829B",
"d 	c #C8E4F3",
"e 	c #B9D2E2",
"f 	c #AEC6D7",
"g 	c #57597C",
"h 	c #220A0A",
"i 	c #868893",
"j 	c #79859D",
"k 	c #BFD5E4",
"l 	c #5A5C7D",
"m 	c #474662",
"n 	c #888A96",
"o 	c #BFD9E9",
"p 	c #C0D6E4",
"q 	c #484764",
"r 	c #9DB0C3",
"s 	c #BCD5E5",
"t 	c #8D9DB2",
"u 	c #C4DFEE",
"v 	c #A1B6C8",
"w 	c #8E9FB4",
"x 	c #6A728E",
"y 	c #C3DEEE",
"z 	c #676F8C",
"A 	c #707A94",
"B 	c #B8D0E1",
"C 	c #C4DFEF",
"D 	c #707A95",
"E 	c #ACC2D3",
"F 	c #7C89A1",
"G 	c #ADC4D5",
"H 	c #C7E3F2",
"I 	c #727C96",
"J 	c #616786",
"K 	c #C5E0EF",
"L 	c #737E97",
"M 	c #A9BFD1",
"N 	c #7F8DA4",
"O 	c #C6E1F0",
"P 	c #C5E0F0",
"Q 	c #B0C7D8",
"R 	c #ABC1D3",
"S 	c #CAE7F5",
"T 	c #C9E4F3",
"U 	c #C8E3F2",
"V 	c #78849C",
"W 	c #9FB3C6",
"X 	c #6F7893",
"Y 	c #ACC3D4",
"Z 	c #4F4E75",
"` 	c #69718D",
" .	c #CAE5F4",
"..	c #9EB1C4",
"+.	c #A3B7C9",
"@.	c #878995",
"#.	c #C1D6E5",
"$.	c #585A7C",
"%.	c #484763",
"&.	c #7F8C97",
"*.	c #B6C5D3",
"=.	c #B4C3D1",
"-.	c #B0BFCE",
";.	c #7E839A",
">.	c #7D8097",
",.	c #7D8198",
"'.	c #6E6F78",
").	c #5E5D65",
"!.	c #C4DDEC",
"~.	c #C5DDEC",
"{.	c #A8B0BE",
"].	c #5E6080",
"^.	c #595B7D",
"/.	c #363044",
"(.	c #A5ACBA",
"_.	c #C6E0EF",
":.	c #C6E0EE",
"<.	c #9FA3B3",
"[.	c #9CA1B1",
"}.	c #979CAB",
"|.	c #A5ADBB",
"1.	c #71738D",
"2.	c #54567A",
"3.	c #525376",
"4.	c #70738D",
"5.	c #545159",
"6.	c #85929D",
"7.	c #B2BECC",
"8.	c #B1BECC",
"9.	c #B2BECD",
"0.	c #7A839A",
"a.	c #757891",
"b.	c #676774",
"c.	c #56545C",
"d.	c #70717B",
"e.	c #B9C9D8",
"f.	c #5C5E7F",
"g.	c #434056",
"h.	c #B8C9D7",
"i.	c #3E3B53",
"j.	c #4E4B53",
"k.	c #3C3951",
"l.	c #312838",
"                  . . . + @ # # #                   ",
"              $ % & & & & * = - ; > ,               ",
"            ' ) ) ) ) ) ) ) ! ~ ; ; ; {             ",
"          ] ) ) ^ / ) / ( _ ) : - ; ; ; <           ",
"          [ ) } | 1 / / 2 3 4 5 6 ; ; ; 7           ",
"        8 9 / 0 a b / / c d e ) f ; ; ; g h         ",
"        i / ) ) j / ) / c ) ) ) k l ; ; ; m         ",
"        n / ) ) o ) ) ) o ) ) ) p l ; ; ; q         ",
"        n / ) ) r / ) s t u ) ) p l ; ; ; q         ",
"        n / ) v w / 9 x y z / ) p l ; ; ; q         ",
"        n / / A B C / D E F / ) p l ; ; ; q         ",
"        n / ) y s G ) H I d ) ) p l ; ; ; q         ",
"        n / ) y J K / L M N / ) p l ; ; ; q         ",
"        n / ) O P ) / Q ) R S ) p l ; ; ; q         ",
"        n / ) ) ) ) ) ) ) ) ) ) p l ; ; ; q         ",
"        n / ) ) ) ) ) ) ) ) ) ) p l ; ; ; q         ",
"        n / ) ) ) & T ) U ) ) ) p l ; ; ; q         ",
"        n / ) ) U V W s X ) ) ) p l ; ; ; q         ",
"        n / ) ) ) Y Z `  .) ) ) p l ; ; ; q         ",
"        n / ) ) ) ) ..) ) ) ) ) p l ; ; ; q         ",
"        n / ) ) ) ) +.S ) ) ) ) p l ; ; ; q         ",
"        n / ) ) ) ) ) ) ) ) ) ) p l ; ; ; q         ",
"        @.5 / / / / / / / / / / #.$.; ; ; %.        ",
"      &.*.=.=.=.=.=.=.=.=.=.=.=.=.-.;.>.>.,.'.      ",
"    ).k !.!.!.!.!.!.!.!.!.!.!.!.!.~.{.].^.^.^./.    ",
"    (._.:.:.:.:.:.:.:.:.:.:.:.:.:.:.!.<.[.[.[.}.    ",
"    |.) ) ) ) ) ) ) ) ) ) ) ) ) ) ) U 1.2.2.2.3.    ",
"    |./ / / / / / / / / / / / / / / T 4.; ; ; {     ",
"5.6.7.8.8.8.8.8.8.8.8.8.8.8.8.8.8.8.8.9.0.a.a.a.b.c.",
"d.) ) ) ) ) ) ) ) ) ) ) ) ) ) ) ) ) ) ) e.f.].].].g.",
"d.& & & & & & & & & & & & & & & & & & & h.2.; ; ; i.",
"j.. . . . . . . . . . . . . . . . . . . d.k.# # # l."};
