/* XPM */
static char * exit_xpm[] = {
"26 32 256 2",
"  	c None",
". 	c #B38D85",
"+ 	c #7B606B",
"@ 	c #B59187",
"# 	c #B4A094",
"$ 	c #B4A599",
"% 	c #B4958B",
"& 	c #89676F",
"* 	c #B08681",
"= 	c #B4A297",
"- 	c #B49F94",
"; 	c #B4A69A",
"> 	c #907A7B",
", 	c #F3BDA7",
"' 	c #FCCAAE",
") 	c #937677",
"! 	c #FBCAAE",
"~ 	c #FBCBAF",
"{ 	c #B39087",
"] 	c #FCCBAF",
"^ 	c #D89F94",
"/ 	c #FBD6BB",
"( 	c #FBCDB1",
"_ 	c #F8C2A9",
": 	c #8F6D72",
"< 	c #FAC8AD",
"[ 	c #AC7F7E",
"} 	c #F5B9A4",
"| 	c #927375",
"1 	c #FBD5B9",
"2 	c #EDA799",
"3 	c #E18587",
"4 	c #815E6B",
"5 	c #A56C74",
"6 	c #86616C",
"7 	c #A76D75",
"8 	c #A66C74",
"9 	c #F3B8A3",
"0 	c #EFAC9C",
"a 	c #D58284",
"b 	c #6B5866",
"c 	c #7F5E6D",
"d 	c #AB6F7B",
"e 	c #AF717C",
"f 	c #A16A78",
"g 	c #6D5866",
"h 	c #646E7E",
"i 	c #795C6A",
"j 	c #AD707B",
"k 	c #AE817E",
"l 	c #FBC9AE",
"m 	c #E6928E",
"n 	c #6D5967",
"o 	c #765B6A",
"p 	c #7C5D6B",
"q 	c #7D5E6B",
"r 	c #785C6A",
"s 	c #6E5866",
"t 	c #6E5967",
"u 	c #705A68",
"v 	c #6F5967",
"w 	c #B69288",
"x 	c #F9C7AC",
"y 	c #AB6F76",
"z 	c #7D5D6D",
"A 	c #AA6E7A",
"B 	c #B77F81",
"C 	c #C08F8D",
"D 	c #BF8D8B",
"E 	c #AB717B",
"F 	c #6F7886",
"G 	c #7A5D6A",
"H 	c #AF7B7D",
"I 	c #B98D8B",
"J 	c #B98D8A",
"K 	c #B88B89",
"L 	c #A87079",
"M 	c #B28F86",
"N 	c #AB7E7D",
"O 	c #82606B",
"P 	c #7C5E6B",
"Q 	c #8A626F",
"R 	c #937277",
"S 	c #947378",
"T 	c #8A6570",
"U 	c #697281",
"V 	c #725A68",
"W 	c #937177",
"X 	c #8D6771",
"Y 	c #B28681",
"Z 	c #F4B7A3",
"` 	c #9F6A73",
" .	c #6B6A78",
"..	c #766675",
"+.	c #C1928E",
"@.	c #C49591",
"#.	c #C49490",
"$.	c #8F6972",
"%.	c #6A7583",
"&.	c #B88386",
"*.	c #B5A69A",
"=.	c #FAC7AC",
"-.	c #9E6972",
";.	c #798D98",
">.	c #727987",
",.	c #BE908D",
"'.	c #C39490",
").	c #967478",
"!.	c #6E7886",
"~.	c #C2938F",
"{.	c #B6978C",
"].	c #AD7C80",
"^.	c #B88C8A",
"/.	c #C1928F",
"(.	c #C1938F",
"_.	c #8B636F",
":.	c #7A8892",
"<.	c #B27B81",
"[.	c #B69B90",
"}.	c #6A5766",
"|.	c #6D5765",
"1.	c #7D8B94",
"2.	c #9A6C76",
"3.	c #A88182",
"4.	c #A0747A",
"5.	c #B69388",
"6.	c #A66D7A",
"7.	c #AE707B",
"8.	c #835E6D",
"9.	c #747F8C",
"0.	c #C29490",
"a.	c #C59591",
"b.	c #9D6972",
"c.	c #A5797A",
"d.	c #EBBDA5",
"e.	c #E0A295",
"f.	c #986871",
"g.	c #996876",
"h.	c #A56D78",
"i.	c #A46C78",
"j.	c #7B5C6B",
"k.	c #707A87",
"l.	c #A8747C",
"m.	c #AF7E82",
"n.	c #976771",
"o.	c #B07E82",
"p.	c #87606D",
"q.	c #646F7F",
"r.	c #B6A094",
"s.	c #7E636C",
"t.	c #69606F",
"u.	c #9B757A",
"v.	c #C2928F",
"w.	c #B69F94",
"x.	c #A1757B",
"y.	c #A98282",
"z.	c #A98081",
"A.	c #79606C",
"B.	c #849FA8",
"C.	c #747581",
"D.	c #82979F",
"E.	c #9C7075",
"F.	c #B6A398",
"G.	c #715A68",
"H.	c #7B5D6B",
"I.	c #6F5B69",
"J.	c #7F99A3",
"K.	c #6F6C7A",
"L.	c #81969E",
"M.	c #AA747C",
"N.	c #B98587",
"O.	c #8D6370",
"P.	c #7B5F6C",
"Q.	c #81959E",
"R.	c #BA8D8B",
"S.	c #735A69",
"T.	c #88616E",
"U.	c #87616E",
"V.	c #715B69",
"W.	c #967479",
"X.	c #957479",
"Y.	c #906B73",
"Z.	c #815F6B",
"`.	c #BE8A8A",
" +	c #7F636E",
".+	c #82969E",
"++	c #7B5D6C",
"@+	c #8A636F",
"#+	c #755B69",
"$+	c #B6958B",
"%+	c #C3928F",
"&+	c #826770",
"*+	c #A36B78",
"=+	c #81636E",
"-+	c #846870",
";+	c #836770",
">+	c #6E6C7A",
",+	c #775C6A",
"'+	c #7F606C",
")+	c #7E606C",
"!+	c #755C6A",
"~+	c #916B73",
"{+	c #A0777B",
"]+	c #C39390",
"^+	c #A06F78",
"/+	c #70737F",
"(+	c #656A7A",
"_+	c #7D7681",
":+	c #BC8A88",
"<+	c #987479",
"[+	c #758F9B",
"}+	c #697A89",
"|+	c #946E74",
"1+	c #667181",
"2+	c #BD8A88",
"3+	c #B58F86",
"4+	c #F8C3AA",
"5+	c #6E5B69",
"6+	c #7D5E6C",
"7+	c #B78A89",
"8+	c #86606D",
"9+	c #6F7887",
"0+	c #B78C8A",
"a+	c #6D5A69",
"b+	c #7D616C",
"c+	c #977A79",
"d+	c #936F73",
"e+	c #795D69",
"f+	c #9A6876",
"g+	c #926474",
"h+	c #65707F",
"i+	c #795C69",
"j+	c #B48B84",
"k+	c #FDCBAF",
"l+	c #F7BEA7",
"m+	c #9E6A72",
"n+	c #A06A78",
"o+	c #B5A89C",
"p+	c #6B5766",
"q+	c #6B7584",
"r+	c #9B6C76",
"s+	c #B59087",
"t+	c #8C6470",
"u+	c #745B69",
"v+	c #A77076",
"w+	c #E4958F",
"x+	c #E18D8B",
"y+	c #96626F",
"z+	c #646D7D",
"A+	c #A96E7A",
"B+	c #AC6F7A",
"C+	c #825F6E",
"D+	c #97636F",
"E+	c #6A5866",
"F+	c #6C5866",
"G+	c #6C5967",
"          . + . @ # $ % & * @ = - ; . + .           ",
"      > , ' ) ' ! ~ ~ ! { ] ! ~ ~ ~ ' ) ' , >       ",
"    ^ / ( _ : _ < < < < [ } < < < < _ : _ ( / ^     ",
"  | 1 ! 2 3 4 5 5 5 5 5 6 7 8 5 5 5 5 4 3 2 ! 1 |   ",
"  9 ! 0 a b c d e e e f g h i j e e d c b a 0 ! 9   ",
"k l < m n o p q q q q r s h t u u u u v t n m < l k ",
"w ! x y z A B C C C D E g F G H I J J K L z y x ! w ",
"& M N O P Q R S S S S T g U V W S S S S X P O N M & ",
"Y ] Z `  ...+.@.@.@.@.#.$.%.&.@.@.@.@.+... .` Z ] Y ",
"*.~ =.-.;.>.,.'.'.'.'.'.).!.~.'.'.'.'.,.>.;.-.=.~ *.",
"{.! =.-.].^./.(.(.(.(./._.:.<.(.(.(.(./.^.].-.=.! {.",
"[.! =.-.b }.}.}.}.}.}.}.|.1.2.3.3.3.3.3.3.4.-.=.! [.",
"5.! < -.6.7.7.7.7.7.7.j 8.9.0.'.'.'.'.'.'.a.b.< ! 5.",
"c.d.e.f.g.h.h.h.h.h.h.i.j.k.l.^.^.^.^.^.^.m.n.e.d.c.",
"c.d.e.n.o.J J J J J J ^.p.q.l.^.^.^.^.^.^.m.n.e.d.c.",
"r.~ < b.a.'.'.'.'.'.'.&.s.t.u.v.'.'.'.'.'.a.b.< ~ r.",
"w.~ =.-.x.y.y.y.y.y.z.A.B.C.D.E.3.3.3.3.3.4.-.=.~ w.",
"F.~ =.-.G.H.H.H.H.H.G I.J.K.L.M.(.(.(.(.(.N.b.=.~ F.",
"w ! =.-.O.j j j j j j P.J.K.Q.R.'.'.'.'.'.#.b.=.! w ",
"Y ] Z ` S.T.T.T.T.T.U.V.J.K.L.U.W.X.X.X.X.Y.` Z ] Y ",
"& M N Z.`.@.@.@.@.@.v. +J.K..+++@+Q Q Q Q #+O N M & ",
"$+! x b.%+'.'.'.'.'.'.&+J.K.L.*+j j j j j O.-.x ! $+",
"*.~ =.-.=+-+-+-+-+-+;+V.J.>+.+,+'+)+)+)+)+!+-.=.~ *.",
"r.~ =.-.~+{+]+@.@.@.#.^+/+(+_+:+@.@.@.]+{+<+-.=.~ r.",
"w ! =.-.[+}+,.'.'.'.'.'.|+1+2+'.'.'.'.,.}+[+-.=.! w ",
"3+! 4+-.5+6+7+J J J J ^.8+9+0+^.^.^.^.7+6+a+-.4+! 3+",
"b+c+d+e+f+h.h.h.h.h.h.g+g h+l.^.^.^.^.^.J o.i+d+c+b+",
"j+k+l+m+6.7.7.7.7.7.7.n+g 1+0.'.'.'.'.'.'.a.-.l+k+j+",
"o+~ =.-.b }.}.}.}.}.}.p+g q+r+y.y.y.y.y.y.x.-.=.~ o+",
"s+! 4+-.N.(.(.(.(.(.(./.t+h G.H.H.H.H.H.H.u+-.4+! s+",
"v+w+x+y+N.(.(.(.(.(.(./.t+z+o A+B+B+B+B+B+C+D+x+w+v+",
"n E+E+n F+F+F+F+F+F+F+F+n t t n G+G+G+G+G+t n E+E+n "};
