/* XPM */
static char * player_xpm[] = {
"16 32 270 2",
"  	c None",
". 	c #613835",
"+ 	c #633935",
"@ 	c #7D4E3A",
"# 	c #8A583D",
"$ 	c #704438",
"% 	c #81513B",
"& 	c #593434",
"* 	c #462A33",
"= 	c #492B33",
"- 	c #523034",
"; 	c #643B36",
"> 	c #673D36",
", 	c #7B4C3A",
"' 	c #89573D",
") 	c #714538",
"! 	c #86553C",
"~ 	c #4C2C33",
"{ 	c #543134",
"] 	c #6A3F37",
"^ 	c #693F36",
"/ 	c #784A39",
"( 	c #83523B",
"_ 	c #87563C",
": 	c #85543C",
"< 	c #83533B",
"[ 	c #83533C",
"} 	c #5B3534",
"| 	c #663D36",
"1 	c #82523B",
"2 	c #84543C",
"3 	c #89573C",
"4 	c #986346",
"5 	c #9B664E",
"6 	c #8F5D4B",
"7 	c #9F694E",
"8 	c #96624C",
"9 	c #6E433B",
"0 	c #623935",
"a 	c #4E2E34",
"b 	c #533034",
"c 	c #653B36",
"d 	c #744838",
"e 	c #925F45",
"f 	c #B87C5C",
"g 	c #C58766",
"h 	c #C58665",
"i 	c #DC9772",
"j 	c #8B5B48",
"k 	c #5E3633",
"l 	c #583234",
"m 	c #522C31",
"n 	c #633B35",
"o 	c #714537",
"p 	c #A87058",
"q 	c #C18161",
"r 	c #814A37",
"s 	c #824C38",
"t 	c #733E2E",
"u 	c #BB795C",
"v 	c #875640",
"w 	c #654743",
"x 	c #AD8168",
"y 	c #8F5E4D",
"z 	c #73433A",
"A 	c #BC7C5F",
"B 	c #C98564",
"C 	c #9D5A42",
"D 	c #C27A5B",
"E 	c #B96E54",
"F 	c #A55845",
"G 	c #A17A64",
"H 	c #FFC69B",
"I 	c #D59C7A",
"J 	c #864F41",
"K 	c #D68967",
"L 	c #D19975",
"M 	c #B79574",
"N 	c #DEAC86",
"O 	c #C48366",
"P 	c #A25341",
"Q 	c #BA9073",
"R 	c #B2846A",
"S 	c #AA654D",
"T 	c #DA9774",
"U 	c #FAC79C",
"V 	c #FFD3A6",
"W 	c #FFD4A6",
"X 	c #E9B891",
"Y 	c #DBA783",
"Z 	c #7E8072",
"` 	c #6E3C38",
" .	c #B37056",
"..	c #D98F6B",
"+.	c #E9AF87",
"@.	c #FFD2A4",
"#.	c #F5C095",
"$.	c #EFB38A",
"%.	c #FDCC9F",
"&.	c #595A4D",
"*.	c #696A5D",
"=.	c #D0805F",
"-.	c #E9A57E",
";.	c #F7C297",
">.	c #FAC89C",
",.	c #C29A7A",
"'.	c #665445",
").	c #46473D",
"!.	c #56574A",
"~.	c #4D9382",
"{.	c #72AD8E",
"].	c #818073",
"^.	c #8B8978",
"/.	c #8E8776",
"(.	c #B18970",
"_.	c #C78C6D",
":.	c #A8836B",
"<.	c #7B5B4E",
"[.	c #432C2B",
"}.	c #302F2A",
"|.	c #6CBD99",
"1.	c #61AC90",
"2.	c #569E88",
"3.	c #59A58C",
"4.	c #3C7F79",
"5.	c #397C76",
"6.	c #4B6663",
"7.	c #584546",
"8.	c #302E3A",
"9.	c #6F4C43",
"0.	c #785042",
"a.	c #6EC09B",
"b.	c #66B494",
"c.	c #529784",
"d.	c #61AD90",
"e.	c #539985",
"f.	c #68B796",
"g.	c #64B190",
"h.	c #5E7562",
"i.	c #A16D4E",
"j.	c #B57C56",
"k.	c #6CBC99",
"l.	c #60AB8F",
"m.	c #559C87",
"n.	c #6A9076",
"o.	c #9F7253",
"p.	c #BB8058",
"q.	c #BB855C",
"r.	c #6A8073",
"s.	c #67B595",
"t.	c #528E80",
"u.	c #638C7F",
"v.	c #659C86",
"w.	c #6DBB97",
"x.	c #6EBC98",
"y.	c #6C9378",
"z.	c #9E6F52",
"A.	c #BC8158",
"B.	c #BA865D",
"C.	c #8BB08B",
"D.	c #41726B",
"E.	c #27515B",
"F.	c #69B997",
"G.	c #559483",
"H.	c #A9C29C",
"I.	c #F9CEA2",
"J.	c #D8B38E",
"K.	c #725E50",
"L.	c #765C4D",
"M.	c #A47555",
"N.	c #BA865E",
"O.	c #8DB08B",
"P.	c #6FBF9A",
"Q.	c #5B8B7C",
"R.	c #567B73",
"S.	c #69BA97",
"T.	c #839B86",
"U.	c #F8CB9F",
"V.	c #FFD1A4",
"W.	c #D3A985",
"X.	c #98654A",
"Y.	c #B5855F",
"Z.	c #B68C64",
"`.	c #8EAF8A",
" +	c #6BBA98",
".+	c #A97E63",
"++	c #BA7258",
"@+	c #BE7357",
"#+	c #6DC09B",
"$+	c #8DB994",
"%+	c #ECAE86",
"&+	c #FFD2A5",
"*+	c #FFD0A3",
"=+	c #D2A885",
"-+	c #786454",
";+	c #78A283",
">+	c #6FC09B",
",+	c #759480",
"'+	c #B67960",
")+	c #D8906D",
"!+	c #E19A75",
"~+	c #E4BB93",
"{+	c #DDAC86",
"]+	c #A5806A",
"^+	c #4A8F7B",
"/+	c #78B08D",
"(+	c #92BD92",
"_+	c #9AC395",
":+	c #628F79",
"<+	c #C59173",
"[+	c #E29B75",
"}+	c #C98060",
"|+	c #DF9873",
"1+	c #3B222C",
"2+	c #281320",
"3+	c #43282C",
"4+	c #5B3A37",
"5+	c #4B2E2D",
"6+	c #8B5B44",
"7+	c #C79C63",
"8+	c #D2AF6C",
"9+	c #856946",
"0+	c #E49D77",
"a+	c #E39C76",
"b+	c #2E1A23",
"c+	c #2A1722",
"d+	c #6F4A3A",
"e+	c #9A694E",
"f+	c #9A684E",
"g+	c #9A684D",
"h+	c #8B5D49",
"i+	c #613D3C",
"j+	c #754D42",
"k+	c #825746",
"l+	c #BE8359",
"m+	c #C0845A",
"n+	c #97674C",
"o+	c #6A453E",
"p+	c #7B5144",
"q+	c #815646",
"r+	c #A36F50",
"s+	c #BD8259",
"t+	c #B27A55",
"u+	c #7B5243",
"v+	c #734C41",
"w+	c #825646",
"x+	c #AD7654",
"y+	c #BF835A",
"z+	c #99684D",
"A+	c #513334",
"B+	c #714A3F",
"C+	c #835747",
"D+	c #714B41",
"E+	c #BE8259",
"F+	c #AF7854",
"G+	c #8A5D48",
"H+	c #3C232E",
"I+	c #523432",
"J+	c #5B3B34",
"K+	c #553636",
"L+	c #B07955",
"M+	c #442833",
"N+	c #402530",
"O+	c #331C28",
"P+	c #452933",
"Q+	c #B47C56",
"R+	c #90614A",
"S+	c #603F32",
"T+	c #634134",
"U+	c #422731",
"              . + @ # # $ % #   ",
"    & * = - ; > , # # # ' ) ! # ",
"    ~ { ] ^ / # ! ( _ : < [ ' # ",
"    } | 1 2 3 4 5 6 7 8 9 0 : # ",
"    a b c d e f g h h i j k :   ",
"    l m n o p q r s t u v       ",
"    w x y z A B C D E F         ",
"    G H I J K L M N O P         ",
"      Q R S T U V W X Y       Z ",
"      `  ...+.V @.#.$.%.    &.*.",
"        =...-.;.V >.;.,.'.).!.  ",
"      ~.{.].^./.(._.:.<.[.}.    ",
"    |.1.2.3.4.5.6.7.8.9.0.      ",
"  a.a.b.c.d.e.f.b.g.h.i.j.      ",
"  a.a.k.l.m.|.a.a.n.o.p.q.r.    ",
"a.a.s.t.u.v.w.x.y.z.A.B.C.D.E.  ",
"a.F.G.H.I.J.K.L.M.A.N.O.P.Q.R.  ",
"a.S.T.U.V.V.W.X.Y.Z.`.a. +.+++@+",
"  #+$+%+&+*+=+-+;+>+a.S.,+'+)+!+",
"        ~+{+]+^+/+(+_+:+<+[+}+|+",
"      1+2+3+4+5+6+7+8+9+  0+a+  ",
"      b+c+d+e+f+g+h+i+j+k+      ",
"      b+    l+l+m+n+o+p+q+      ",
"          r+s+s+t+u+v+w+w+      ",
"          x+s+y+z+A+B+C+D+      ",
"          E+E+F+G+H+I+J+K+      ",
"          s+s+L+  M+N+O+        ",
"        g+E+s+    P+P+          ",
"        Q+F+R+                  ",
"        S+T+                    ",
"        U+U+                    ",
"        P+P+                    "};
