/* XPM */
static char * wall_xpm[] = {
"32 32 11 1",
" 	c #5880CC",
".	c #62ABD4",
"+	c #BBC44E",
"@	c #1F3736",
"#	c #25131A",
"$	c #56587B",
"%	c #523B40",
"&	c #8A961F",
"*	c #5C6B53",
"=	c #3D253B",
"-	c #000000",
"#&&&&==******======******=&&&&&@",
"#&&&@==******======******=&&&&@&",
"#&@&&&==****========****==&&@&&&",
"#@&&&&&=====**=============@&&&&",
"#&&&&&&=====***==**=========&&&&",
"#&&&&&=======**==**=========&&&&",
"#@&&&==*****========*****====&&&",
"#@@@@=*******======*******====**",
"#@&&@=********====********===***",
"#&&&&=********====********===***",
"#&&&&=********====********===***",
"#@&&@=********====********===***",
"#&@@@==*******====*******==**=**",
"#&&&&===*****======*****==***===",
"#&&&&&&===================**====",
"#&&&&&&&=***====================",
"#&&&&&&&=****===================",
"#@&&&&&&=****===%%==============",
"#&@@&&&===***===%%==*****=======",
"#&&&@==***=========*******====**",
"#&&&@=*****========********==***",
"#&&&@=*****========********==***",
"#&&@@=*****========********==***",
"#&@&&&=***=========********==***",
"#@&&&&&===****======*******===**",
"#&&&&&&==*****=======*****======",
"#&&&&&&==*****===**=========&&&&",
"#&&&&&&==****====***=======&&&&&",
"#&&&&&============**======&&&&&&",
"#@&&&===****========****==&&&&&&",
"#&@&@==******======******=&&&&&&",
"#&&&&==******======******=&&&&&&"};
